<?xml version="1.0" encoding="UTF-8" standalone="no"?>
<!DOCTYPE svg PUBLIC "-//W3C//DTD SVG 1.1//EN" "http://www.w3.org/Graphics/SVG/1.1/DTD/svg11.dtd">
<svg width="100%" height="100%" viewBox="0 0 1280 460" version="1.1" xmlns="http://www.w3.org/2000/svg" xmlns:xlink="http://www.w3.org/1999/xlink" xml:space="preserve" xmlns:serif="http://www.serif.com/" style="fill-rule:evenodd;clip-rule:evenodd;stroke-linejoin:round;stroke-miterlimit:2;">
    <g transform="matrix(0.1,0,0,-0.1,-19.295,465.634)">
        <path d="M4025,3943c-119,-26 -366,-144 -473,-225c-69,-53 -379,-217 -497,-263c-139,-55 -370,-185 -456,-257c-47,-38 -47,-38 -75,9c-15,26 -47,69 -71,95c-44,46 -44,46 -1,66c99,43 126,130 68,210c-38,52 -86,84 -173,112c-123,40 -214,4 -294,-115c-60,-89 -24,-194 83,-245c24,-11 44,-23 44,-27c0,-4 -10,-27 -22,-52c-12,-25 -24,-69 -26,-98c-4,-49 -6,-53 -26,-47c-11,4 -25,10 -31,14c-11,9 -84,38 -204,81c-90,33 -293,79 -346,79c-64,0 -331,41 -400,61c-38,12 -104,34 -145,50c-97,37 -297,76 -430,84c-105,7 -105,7 -170,-27c-75,-38 -102,-75 -102,-142c0,-56 36,-127 101,-198c55,-60 181,-152 233,-170c18,-6 60,-26 93,-44c180,-97 683,-164 1023,-136c101,9 91,-7 -21,-33c-40,-9 -83,-21 -97,-26c-14,-5 -131,-20 -260,-34c-427,-47 -610,-88 -728,-164c-74,-48 -99,-81 -108,-138c-18,-118 50,-185 246,-240c69,-20 118,-25 258,-30c473,-16 826,82 1033,286c82,81 115,136 156,260c46,138 83,187 83,111c0,-26 30,-179 75,-385c41,-189 161,-507 257,-685c133,-244 371,-539 558,-690c78,-62 113,-82 134,-74c31,12 15,39 -76,134c-240,248 -370,445 -499,757c-118,286 -142,385 -189,795c-11,97 -23,185 -27,194c-4,12 -2,15 8,12c8,-2 28,-31 46,-63c70,-131 217,-257 359,-308c114,-41 185,-50 371,-48c139,1 196,6 293,26c274,56 606,187 668,264c32,40 50,98 42,139c-22,121 -138,182 -343,182c-107,0 -379,-24 -396,-35c-13,-8 -281,-35 -446,-46c-128,-8 -234,-5 -223,6c2,2 59,11 128,20c193,26 302,56 530,146c215,85 382,192 531,339c114,113 168,194 199,296c25,86 22,110 -21,159c-46,52 -156,78 -244,58Zm189,-77c27,-20 36,-35 36,-56c0,-16 -5,-32 -11,-35c-5,-4 -54,-11 -107,-15c-195,-18 -352,-62 -480,-137c-24,-13 -45,-23 -47,-21c-2,2 3,27 11,56c18,60 34,74 162,137c76,37 115,53 232,99c8,3 50,4 92,3c65,-3 82,-8 112,-31Zm11,-156c7,-12 -37,-96 -75,-141c-27,-33 -27,-33 -86,-17c-32,9 -116,24 -186,34c-71,9 -128,21 -128,25c0,4 35,21 78,38c71,28 208,56 322,64c25,2 50,4 57,5c6,1 15,-3 18,-8Zm-675,-75c0,-3 -11,-27 -24,-53c-22,-43 -33,-51 -118,-94c-51,-25 -122,-57 -157,-70c-140,-50 -472,-224 -613,-319c-61,-41 -78,-47 -78,-27c0,18 100,111 161,150c78,50 372,202 452,234c67,26 323,158 342,175c10,10 35,12 35,4Zm-1136,-62c17,-16 23,-29 16,-31c-12,-4 -60,36 -60,50c0,15 17,8 44,-19Zm1477,-38c59,-7 124,-21 145,-30c38,-16 38,-16 -12,-66c-56,-57 -45,-57 -204,-14c-58,16 -137,28 -202,32c-60,3 -108,9 -108,12c0,4 28,23 63,44c57,34 68,37 137,37c41,0 123,-7 181,-15Zm-1497,-117c-6,-9 -54,20 -54,33c0,4 13,1 29,-9c16,-9 27,-20 25,-24Zm-1795,2c130,-14 305,-55 414,-96c88,-34 138,-66 124,-80c-3,-4 -57,7 -119,25c-159,43 -261,61 -353,61c-73,0 -239,-20 -307,-36c-26,-6 -28,-4 -28,23c0,34 37,74 90,97c42,18 57,19 179,6Zm3103,-20c83,-12 191,-43 195,-57c5,-13 -136,-103 -162,-103c-13,0 -45,9 -72,21c-62,27 -237,66 -336,74c-42,4 -79,11 -82,15c-6,10 68,40 125,50c67,11 249,11 332,0Zm-374,-115c123,-15 309,-58 325,-74c16,-16 -1,-28 -79,-61c-76,-32 -76,-32 -135,0c-57,30 -212,71 -327,85c-32,4 -52,11 -49,18c6,20 87,56 115,52c15,-3 82,-12 150,-20Zm-2518,-20c109,-18 130,-23 130,-34c0,-4 -53,-29 -119,-55c-123,-49 -207,-95 -229,-127c-19,-28 -37,-24 -97,22c-47,35 -135,135 -135,152c0,24 151,54 280,56c41,0 118,-6 170,-14Zm575,-20c295,-37 347,-47 492,-97c114,-39 258,-109 254,-123c-2,-5 -6,-9 -9,-8c-4,1 -45,15 -92,31c-147,51 -345,92 -535,111c-166,17 -206,27 -248,62c-44,36 -47,50 -9,44c15,-3 81,-11 147,-20Zm1675,-55c213,-26 360,-63 360,-92c0,-10 -185,-68 -218,-68c-15,0 -67,17 -117,39c-49,21 -123,49 -162,62c-40,12 -73,26 -73,29c0,15 77,49 100,45c14,-3 63,-9 110,-15Zm-1917,-11c74,-25 87,-35 56,-44c-122,-36 -267,-115 -343,-187c-27,-26 -52,-46 -55,-44c-3,2 -45,22 -93,45c-49,23 -88,48 -88,56c0,30 136,101 310,161c112,40 130,41 213,13Zm387,-84c-1,-5 -15,-15 -33,-21c-49,-17 -178,-84 -217,-112c-19,-15 -63,-50 -96,-79c-61,-52 -61,-52 -170,-32c-60,11 -117,25 -128,31c-19,10 -17,14 28,54c62,56 206,128 327,162c91,26 101,27 193,17c53,-5 96,-14 96,-20Zm1450,-35c82,-30 109,-45 99,-54c-2,-3 -43,-10 -91,-17c-86,-13 -86,-13 -177,34c-50,26 -92,49 -94,53c-1,4 13,15 31,24c30,16 39,17 90,5c31,-8 95,-28 142,-45Zm-1194,9c24,-6 44,-15 44,-20c0,-5 -15,-16 -32,-25c-75,-38 -230,-148 -262,-186c-35,-41 -35,-41 -143,-34c-143,9 -183,16 -183,31c0,21 125,109 219,155c47,23 114,49 150,57c37,8 77,19 91,23c36,12 65,12 116,-1Zm467,-33c4,-10 1,-13 -9,-9c-15,6 -19,23 -5,23c5,0 11,-7 14,-14Zm490,-29c21,-9 36,-21 32,-27c-9,-14 -195,-13 -195,1c0,6 10,20 23,30c26,23 80,21 140,-4Zm-719,-3c9,-3 16,-10 16,-14c0,-4 -38,-29 -83,-54c-46,-26 -105,-65 -132,-87c-36,-30 -56,-39 -85,-39c-20,0 -65,-3 -99,-6c-50,-6 -61,-4 -61,8c0,19 158,128 253,174c63,31 79,35 124,30c28,-3 58,-9 67,-12Zm131,-60c32,-21 31,-30 -3,-48c-35,-18 -237,-69 -253,-64c-16,5 26,35 121,87c83,45 100,48 135,25Zm1954,-5c56,-12 131,-61 131,-85c0,-11 -5,-14 -17,-9c-10,4 -49,17 -88,28c-95,27 -343,29 -460,3c-44,-9 -100,-17 -125,-17c-44,-1 -108,17 -98,26c7,7 146,34 253,49c114,17 339,19 404,5Zm-1209,-74c69,-3 181,-1 250,4c114,8 131,7 193,-12c37,-11 67,-24 67,-28c0,-31 -443,-23 -605,11c-118,24 -166,46 -80,36c28,-3 106,-8 175,-11Zm1111,-26c116,-14 239,-55 239,-78c0,-27 -36,-68 -85,-97c-48,-28 -49,-27 -110,21c-38,30 -60,44 -192,117c-29,16 -53,34 -53,39c0,12 98,11 201,-2Zm-1373,-15c36,-25 98,-164 73,-164c-21,0 -121,144 -121,175c0,10 26,5 48,-11Zm1209,-69c24,-14 64,-37 91,-52c67,-38 125,-84 115,-93c-12,-11 -154,-60 -173,-60c-9,0 -27,12 -41,26c-35,39 -183,134 -261,169c-37,17 -66,34 -65,39c4,11 41,23 112,34c41,7 61,4 115,-15c35,-13 84,-35 107,-48Zm-1788,26c-47,-36 -128,-72 -324,-141c-165,-59 -260,-77 -525,-100c-151,-13 -211,-24 -355,-62c-118,-31 -163,-51 -238,-104c-26,-19 -50,-34 -53,-34c-13,0 8,56 29,78c91,98 316,153 877,213c155,16 392,82 550,153c48,21 68,20 39,-3Zm141,12c0,-33 -106,-290 -116,-281c-2,3 3,56 11,119c15,107 18,116 48,142c30,26 57,35 57,20Zm575,1c9,-4 29,-33 46,-65c16,-33 44,-83 62,-112c38,-60 62,-115 54,-123c-7,-7 -91,38 -126,67c-15,12 -27,36 -32,65c-5,25 -19,72 -32,104c-28,69 -22,83 28,64Zm182,-52c26,-21 70,-63 97,-93c47,-52 146,-191 146,-205c0,-10 -145,3 -169,15c-11,6 -38,48 -60,94c-22,45 -56,109 -76,142c-19,33 -35,66 -35,73c0,24 49,11 97,-26Zm557,-22c132,-58 313,-177 295,-194c-9,-8 -172,-56 -191,-56c-13,0 -47,26 -87,68c-75,78 -163,151 -221,183c-47,27 -50,36 -12,42c61,11 120,-1 216,-43Zm-290,-5c96,-55 163,-104 246,-184c83,-79 78,-84 -83,-88c-122,-4 -122,-4 -157,53c-43,69 -108,153 -169,217c-45,47 -45,47 20,47c58,0 72,-4 143,-45Zm-1178,-82c-7,-77 -23,-183 -32,-214c-6,-22 -151,-129 -174,-129c-18,0 -18,2 0,58c10,31 40,117 66,190c44,124 50,135 83,152c61,33 64,30 57,-57Zm-176,-55c-10,-29 -32,-87 -48,-128c-15,-41 -35,-102 -42,-134c-14,-57 -15,-59 -66,-82c-67,-29 -163,-54 -169,-44c-5,8 14,70 33,106c5,11 29,59 52,107c66,136 158,224 237,226c22,1 22,1 3,-51Zm-220,-34c0,-3 -8,-18 -19,-32c-16,-23 -55,-102 -107,-217c-7,-16 -19,-50 -27,-75c-16,-52 -22,-54 -181,-66c-98,-7 -98,-7 -91,17c27,89 198,299 277,340c53,27 148,48 148,33Zm-250,-42c0,-5 -14,-21 -31,-38c-48,-45 -130,-160 -175,-243c-41,-76 -41,-76 -110,-79c-100,-5 -194,6 -194,23c0,31 100,143 184,206c129,98 205,132 304,138c12,0 22,-3 22,-7Zm1043,-37c15,-19 35,-35 43,-35c19,0 29,-28 44,-130c14,-96 91,-350 150,-496c22,-53 68,-151 103,-218c71,-136 81,-160 67,-151c-17,10 -104,143 -160,244c-114,207 -242,544 -269,716c-7,39 -14,78 -17,88c-9,28 9,20 39,-18Zm-1318,7c-6,-5 -38,-30 -72,-56c-95,-72 -208,-196 -225,-248c-6,-18 -167,37 -208,71c-35,29 -35,29 -14,57c48,66 160,116 354,159c41,9 80,18 85,20c22,7 88,4 80,-3Z"/>
    </g>
    <g transform="matrix(1,0,0,1,-40.4515,10.4657)">
        <g transform="matrix(0.1,0,0,-0.1,8.34411,460.834)">
            <path d="M4667,3943c-2,-5 -5,-44 -6,-88c-1,-44 -6,-154 -11,-245c-14,-249 -17,-230 28,-230c38,0 38,0 64,131c54,273 142,369 327,357c110,-7 102,48 99,-659c-2,-482 -6,-611 -16,-621c-8,-9 -49,-14 -117,-16c-105,-4 -105,-4 -105,-53c0,-49 0,-49 354,-49c353,0 353,0 351,48c-1,47 -1,47 -104,52c-87,4 -105,8 -117,24c-21,29 -21,1223 0,1252c12,16 27,19 93,19c197,0 280,-103 327,-405c12,-75 12,-75 55,-78c42,-3 42,-3 37,75c-8,99 -26,426 -26,464c0,29 0,29 -614,29c-338,0 -617,-3 -619,-7Z"/>
        </g>
        <g transform="matrix(0.1,0,0,-0.1,8.34411,460.834)">
            <path d="M8521,3925c-88,-75 -40,-215 74,-215c80,0 139,75 116,150c-25,85 -125,119 -190,65Z"/>
        </g>
        <g transform="matrix(0.1,0,0,-0.1,8.34411,460.834)">
            <path d="M6576,3861c-98,-6 -98,-6 -146,-161c-26,-85 -49,-161 -51,-169c-2,-8 3,-16 11,-18c10,-2 63,51 142,144c69,81 138,159 152,172c25,23 26,43 3,39c-7,-1 -56,-4 -111,-7Z"/>
        </g>
        <g transform="matrix(0.1,0,0,-0.1,8.34411,460.834)">
            <path d="M6540,3570c0,-5 5,-10 10,-10c6,0 10,5 10,10c0,6 -4,10 -10,10c-5,0 -10,-4 -10,-10Z"/>
        </g>
        <g transform="matrix(0.1,0,0,-0.1,8.34411,460.834)">
            <path d="M7335,3439c-44,-5 -120,-11 -168,-15c-88,-6 -88,-6 -85,-47c3,-40 3,-40 71,-41c112,-2 107,17 107,-392c0,-403 5,-384 -100,-384c-60,0 -60,0 -60,-45c0,-45 0,-45 250,-45c250,0 250,0 250,45c0,45 0,45 -59,45c-96,0 -93,-11 -89,294c3,248 4,264 26,311c47,102 113,144 225,145c87,0 133,-22 167,-81c25,-44 25,-44 25,-342c0,-344 5,-327 -97,-327c-58,0 -58,0 -58,-45c0,-45 0,-45 250,-45c250,0 250,0 250,45c0,45 0,45 -58,45c-102,0 -96,-20 -102,347c-5,305 -6,320 -28,368c-28,60 -73,109 -127,138c-34,19 -56,22 -150,22c-135,0 -177,-16 -270,-106c-64,-61 -64,-61 -67,26c-2,49 -7,89 -13,90c-5,1 -46,-2 -90,-6Z"/>
        </g>
        <g transform="matrix(0.1,0,0,-0.1,8.34411,460.834)">
            <path d="M8590,3439c-47,-5 -125,-11 -173,-15c-88,-6 -88,-6 -85,-47c3,-40 3,-40 70,-41c110,-2 103,23 103,-391c0,-268 -3,-357 -12,-366c-7,-7 -45,-15 -85,-18c-72,-6 -72,-6 -74,-49c-2,-42 -2,-42 259,-40c260,3 260,3 261,43c1,40 1,40 -66,45c-37,3 -73,11 -80,18c-10,10 -13,106 -15,440c-1,235 -6,427 -10,428c-4,1 -46,-3 -93,-7Z"/>
        </g>
        <g transform="matrix(0.1,0,0,-0.1,8.34411,460.834)">
            <path d="M9292,3431c-226,-67 -357,-306 -323,-587c21,-170 110,-301 249,-367c64,-30 73,-32 187,-32c111,0 124,2 176,28c69,34 137,105 178,185c17,34 31,66 31,71c0,10 -69,47 -73,40c-1,-2 -13,-25 -26,-51c-38,-75 -107,-134 -175,-148c-148,-31 -271,43 -317,189c-26,85 -28,303 -4,396c41,154 136,227 271,210c50,-6 104,-35 104,-56c0,-5 -13,-28 -30,-51c-62,-85 -24,-176 76,-185c68,-7 110,15 135,70c46,103 -3,207 -127,268c-58,29 -76,33 -167,36c-77,2 -117,-2 -165,-16Z"/>
        </g>
        <g transform="matrix(0.1,0,0,-0.1,8.34411,460.834)">
            <path d="M10202,3439c-62,-12 -142,-50 -187,-90c-48,-42 -74,-100 -75,-161c0,-39 6,-54 29,-80c25,-28 34,-32 84,-32c45,-1 60,3 81,23c34,32 36,103 5,156c-27,45 -20,61 37,87c40,17 62,20 145,16c105,-4 130,-14 172,-70c25,-34 38,-200 16,-214c-8,-5 -61,-18 -119,-30c-212,-45 -339,-95 -417,-167c-66,-61 -87,-108 -87,-192c0,-102 43,-174 134,-221c46,-23 202,-31 268,-14c64,18 154,64 195,100c19,16 39,30 43,30c5,0 18,-19 29,-42c42,-87 151,-113 254,-62c31,16 61,40 72,58c21,35 23,45 10,65c-8,12 -15,11 -50,-3c-55,-22 -84,-20 -107,5c-18,19 -19,44 -24,333c-5,312 -5,312 -35,372c-53,102 -156,145 -346,143c-46,-1 -103,-5 -127,-10Zm316,-583c-6,-129 -26,-184 -88,-240c-43,-38 -121,-66 -184,-66c-57,1 -121,32 -140,69c-20,38 -21,143 -1,180c22,44 90,97 154,120c69,26 231,60 250,53c11,-4 13,-27 9,-116Z"/>
        </g>
        <g transform="matrix(0.1,0,0,-0.1,8.34411,460.834)">
            <path d="M6002,3368c3,-18 10,-22 52,-24c37,-1 54,-8 75,-28c26,-26 26,-26 32,-344c7,-366 12,-396 82,-466c51,-50 114,-72 187,-63c68,8 119,37 199,113c40,37 72,60 76,54c3,-5 5,-45 4,-88c-2,-72 -1,-77 20,-80c12,-2 77,19 144,47c67,27 130,52 140,55c28,9 17,41 -13,39c-75,-7 -84,-5 -100,15c-24,30 -31,139 -30,488c2,299 2,299 -151,302c-153,3 -187,-4 -161,-30c7,-7 29,-13 48,-15c50,-3 81,-26 93,-70c7,-22 11,-151 11,-307c0,-268 0,-268 -42,-307c-116,-107 -258,-119 -313,-26c-19,30 -20,55 -23,395c-3,362 -3,362 -168,362c-164,0 -165,0 -162,-22Z"/>
        </g>
    </g>
    <g transform="matrix(0.1,0,0,-0.1,-32.1138,474.664)">
        <path d="M11899,3347c-14,-23 -58,-101 -99,-172c-111,-198 -97,-182 -123,-143c-45,66 -138,44 -248,-59c-141,-134 -208,-294 -165,-397c30,-72 108,-87 187,-38c24,16 50,36 58,46c13,15 16,14 35,-21c44,-78 143,-79 230,-2c46,41 46,41 72,9c39,-46 79,-62 150,-62c77,0 153,32 220,94c47,43 91,119 79,138c-10,17 -33,11 -40,-9c-10,-34 -121,-140 -166,-161c-64,-28 -120,-26 -150,6c-20,22 -24,36 -24,90c0,78 11,92 53,70c87,-45 200,11 251,124c29,63 27,111 -5,150c-53,62 -116,75 -191,39c-88,-43 -196,-200 -209,-305c-12,-99 -124,-220 -178,-192c-43,23 -11,102 170,423c148,265 158,289 155,383c-1,46 -30,41 -62,-11Zm261,-364c0,-35 -48,-118 -92,-161c-41,-39 -104,-54 -114,-28c-13,33 80,154 150,197c43,26 56,24 56,-8Zm-517,-33c-2,-30 -19,-78 -51,-145c-79,-161 -158,-251 -214,-243c-20,3 -23,10 -26,53c-3,42 3,62 38,131c44,87 119,179 184,226c55,39 72,34 69,-22Z"/>
    </g>
    <g transform="matrix(1,0,0,1,11.0776,0.68564)">
        <g transform="matrix(0.1,0,0,-0.1,8.34411,460.834)">
            <path d="M7425,2206c-140,-11 -140,-11 -140,-51c0,-40 0,-40 62,-42c77,-2 101,-14 108,-56c3,-17 5,-303 3,-634c-2,-445 -6,-605 -15,-614c-6,-6 -43,-14 -82,-17c-71,-5 -71,-5 -71,-48c0,-44 0,-44 260,-44c260,0 260,0 260,44c0,44 0,44 -64,48c-35,2 -71,10 -80,17c-14,12 -16,83 -16,712c0,699 0,699 -42,697c-24,0 -106,-6 -183,-12Z"/>
        </g>
        <g transform="matrix(0.1,0,0,-0.1,8.34411,460.834)">
            <path d="M9185,2206c-150,-11 -150,-11 -150,-51c0,-40 0,-40 81,-45c47,-3 88,-11 98,-19c14,-12 16,-44 16,-272c0,-143 -3,-259 -6,-259c-3,0 -28,20 -55,44c-67,60 -126,79 -237,74c-109,-4 -177,-33 -249,-106c-101,-103 -146,-227 -146,-397c0,-173 47,-299 149,-395c80,-76 146,-102 253,-103c110,0 178,28 251,104c58,60 66,54 57,-43c-5,-61 -5,-61 86,-54c269,19 247,14 247,61c0,43 0,43 -60,47c-104,7 -95,-61 -97,731c-2,692 -2,692 -45,693c-24,1 -110,-4 -193,-10Zm-120,-647c23,-7 57,-28 81,-53c59,-59 76,-118 81,-293c6,-169 -11,-265 -58,-336c-38,-57 -85,-80 -174,-85c-94,-5 -147,22 -192,97c-44,73 -56,155 -51,331c4,117 9,156 26,201c48,121 157,174 287,138Z"/>
        </g>
        <g transform="matrix(0.1,0,0,-0.1,8.34411,460.834)">
            <path d="M11403,2207c-153,-10 -153,-10 -153,-53c0,-44 0,-44 80,-44c125,0 120,13 120,-295c0,-140 -3,-255 -6,-255c-4,0 -24,16 -45,35c-65,59 -114,78 -210,83c-65,3 -100,0 -140,-13c-192,-63 -310,-272 -296,-524c6,-119 34,-210 90,-293c79,-118 181,-172 322,-171c102,1 156,24 236,99c59,57 59,57 59,-21c0,-78 0,-78 85,-71c47,3 123,9 170,12c84,7 84,7 83,49c0,43 0,43 -59,47c-38,3 -65,11 -79,23c-20,18 -20,27 -20,712c0,693 0,693 -42,691c-24,-1 -112,-6 -195,-11Zm-122,-648c120,-40 164,-143 164,-379c0,-279 -69,-390 -242,-390c-70,0 -129,25 -166,69c-78,94 -100,386 -41,565c19,57 75,117 124,133c47,15 119,16 161,2Z"/>
        </g>
        <g transform="matrix(0.1,0,0,-0.1,8.34411,460.834)">
            <path d="M3774,2181c-2,-2 -4,-25 -4,-50c0,-46 0,-46 79,-47c109,-1 127,-14 136,-96c9,-87 2,-1129 -8,-1149c-13,-27 -54,-39 -132,-39c-75,0 -75,0 -75,-50c0,-50 0,-50 337,-48c338,3 338,3 338,48c0,45 0,45 -99,50c-145,7 -137,-13 -134,334c3,281 3,281 108,280c125,0 192,-19 237,-67c58,-61 67,-89 93,-307c10,-91 27,-190 37,-220c21,-66 83,-134 132,-143c68,-14 153,-8 198,14c80,39 133,150 133,280c0,68 0,68 -40,67c-39,0 -40,-2 -40,-34c0,-57 -21,-134 -44,-161c-18,-21 -28,-25 -50,-19c-41,10 -61,55 -106,242c-23,95 -53,196 -67,224c-29,59 -88,113 -150,136c-23,9 -43,20 -43,23c0,4 33,14 73,24c152,36 266,120 301,224c23,67 21,189 -4,257c-40,105 -145,190 -270,215c-52,11 -926,22 -936,12Zm854,-121c98,-43 142,-122 142,-256c0,-124 -52,-211 -151,-253c-66,-29 -218,-44 -324,-34c-80,8 -80,8 -83,266c-2,258 -2,258 24,283c25,26 25,26 182,22c137,-4 164,-7 210,-28Z"/>
        </g>
        <g transform="matrix(0.1,0,0,-0.1,8.34411,460.834)">
            <path d="M8102,2167c-35,-20 -55,-56 -56,-101c-3,-110 130,-165 204,-86c51,55 44,132 -15,178c-31,25 -96,29 -133,9Z"/>
        </g>
        <g transform="matrix(0.1,0,0,-0.1,8.34411,460.834)">
            <path d="M5543,1665c-134,-41 -244,-159 -289,-310c-28,-90 -25,-288 5,-373c81,-234 277,-348 522,-302c116,22 217,96 292,213c20,31 37,59 37,61c0,2 -17,14 -37,26c-35,21 -38,21 -48,5c-61,-106 -127,-163 -218,-190c-144,-43 -271,12 -332,142c-21,44 -27,72 -28,137c-2,81 -2,81 332,84c334,2 334,2 328,85c-18,223 -119,369 -293,422c-60,18 -213,19 -271,0Zm222,-84c79,-36 125,-124 125,-242c0,-90 3,-89 -237,-89c-206,0 -206,0 -201,83c6,91 37,174 82,216c53,50 159,65 231,32Z"/>
        </g>
        <g transform="matrix(0.1,0,0,-0.1,8.34411,460.834)">
            <path d="M6522,1664c-148,-39 -232,-125 -232,-237c0,-44 5,-62 23,-82c40,-47 143,-50 179,-5c24,30 23,97 -2,138c-31,51 -26,70 23,92c32,15 65,20 135,20c142,0 193,-31 212,-129c12,-64 13,-131 2,-149c-5,-7 -44,-19 -88,-27c-366,-70 -529,-176 -541,-352c-4,-60 -1,-74 24,-123c49,-95 134,-140 266,-140c102,0 228,47 313,116c41,34 41,34 65,-13c46,-89 154,-117 255,-65c66,34 104,90 85,121c-8,13 -17,12 -60,-2c-57,-18 -93,-11 -109,20c-6,10 -12,153 -14,324c-3,305 -3,305 -33,364c-36,71 -84,107 -172,129c-78,20 -258,20 -331,0Zm344,-480c10,-38 -5,-201 -21,-240c-41,-99 -130,-157 -243,-157c-78,-1 -124,19 -147,62c-35,69 -27,163 20,219c34,41 126,87 220,110c150,38 163,39 171,6Z"/>
        </g>
        <g transform="matrix(0.1,0,0,-0.1,8.34411,460.834)">
            <path d="M8215,1673c-11,-2 -85,-7 -165,-11c-145,-7 -145,-7 -148,-49c-3,-43 -3,-43 60,-43c41,0 71,-5 86,-16c22,-15 22,-15 22,-373c0,-313 -2,-360 -16,-372c-8,-7 -45,-15 -82,-18c-67,-6 -67,-6 -67,-46c0,-40 0,-40 258,-43c257,-2 257,-2 257,43c0,45 0,45 -44,45c-63,0 -103,17 -110,46c-4,14 -6,208 -6,432c1,433 3,415 -45,405Z"/>
        </g>
        <g transform="matrix(0.1,0,0,-0.1,8.34411,460.834)">
            <path d="M9975,1666c-148,-37 -236,-127 -237,-243c-1,-48 3,-59 29,-84c23,-24 38,-30 74,-31c63,-1 87,9 104,42c21,40 19,89 -5,128c-31,51 -26,70 23,92c58,27 216,28 266,2c62,-31 76,-61 79,-172c4,-99 4,-99 -35,-105c-107,-18 -317,-76 -383,-107c-172,-81 -241,-202 -199,-353c17,-59 90,-129 158,-149c139,-41 322,2 432,101c22,20 41,34 42,32c2,-2 16,-26 31,-53c48,-83 152,-109 248,-60c69,35 107,88 84,119c-11,16 -15,16 -59,1c-48,-16 -82,-11 -104,15c-7,9 -13,116 -15,319c-5,324 -9,351 -58,418c-27,36 -86,70 -153,88c-64,17 -253,17 -322,0Zm333,-578c-3,-101 -8,-130 -25,-163c-48,-91 -127,-137 -234,-138c-110,-2 -169,52 -169,153c0,129 98,205 330,254c111,24 103,34 98,-106Z"/>
        </g>
    </g>
</svg>
